# xmcd
#
# Track frame offsets:
#	150
#	14917
#	33317
#	53044
#	69763
#	90293
#	109802
#	129884
#	146279
#	164856
#	178746
#	200878
#	218482
#	234322
#	247454
#	262968
#	275547
#	285989
#	302631
#
# Disc length: 4278 seconds
#
# Revision: 0
# Processed by: cddbd v1.4PL0 Copyright (c) Steve Scherf et al.
# Submitted via: EZCDDA 4.3.3.2
#
DISCID=1210b413
DTITLE=Plavi Orkestar - Plavi Hitovi
DYEAR=1900
DGENRE=
TTITLE0=Lovac I Kosuta
TTITLE1=Ti Si Moja Sudbina
TTITLE2=Nisam Je Probudio
TTITLE3=Kaja
TTITLE4=Soldatski Bal
TTITLE5=Bolje Biti Pijan Nego Star
TTITLE6=Ne Mogu Ti Nista Osim Srca Dati
TTITLE7=Ne Brini Mama
TTITLE8=Puteru, Puteru
TTITLE9=Ustani Voljena Sejo
TTITLE10=Proljece
TTITLE11=Ljubi Se Istok I Zapad
TTITLE12=Zelene Su Bile Oci Te
TTITLE13=Suada
TTITLE14=Parajlija
TTITLE15=Kad Si Sam Druze Moj
TTITLE16=Sacuvaj Zadnji Ples Za Mene
TTITLE17=Goodbye Teens
TTITLE18=Sava Tiho Tece
EXTD=
EXTT0=
EXTT1=
EXTT2=
EXTT3=
EXTT4=
EXTT5=
EXTT6=
EXTT7=
EXTT8=
EXTT9=
EXTT10=
EXTT11=
EXTT12=
EXTT13=
EXTT14=
EXTT15=
EXTT16=
EXTT17=
EXTT18=
PLAYORDER=
